<?xml version="1.0" encoding="UTF-8" standalone="no"?>
<!DOCTYPE svg PUBLIC "-//W3C//DTD SVG 1.1//EN"
 "http://www.w3.org/Graphics/SVG/1.1/DTD/svg11.dtd">
<!-- Generated by graphviz version 2.46.0 (20210118.1747)
 -->
<!-- Title: workflow Pages: 1 -->
<svg width="512pt" height="170pt"
 viewBox="0.00 0.00 512.00 170.00" xmlns="http://www.w3.org/2000/svg" xmlns:xlink="http://www.w3.org/1999/xlink">
<g id="graph0" class="graph" transform="scale(1 1) rotate(0) translate(4 166)">
<title>workflow</title>
<polygon fill="white" stroke="transparent" points="-4,4 -4,-166 508,-166 508,4 -4,4"/>
<!-- place_0e7766b460fd2a39a2fd81d4a3a636b033b52be4 -->
<g id="node1" class="node">
<title>place_0e7766b460fd2a39a2fd81d4a3a636b033b52be4</title>
<ellipse fill="lightblue" stroke="#333333" cx="36" cy="-81" rx="36" ry="36"/>
<text text-anchor="middle" x="36" y="-78.8" font-family="Arial" font-size="9.00">draft</text>
</g>
<!-- transition_b6589fc6ab0dc82cf12099d1c2d40ab994e8410c -->
<g id="node5" class="node">
<title>transition_b6589fc6ab0dc82cf12099d1c2d40ab994e8410c</title>
<polygon fill="none" stroke="#333333" points="180,-117 108,-117 108,-45 180,-45 180,-117"/>
<text text-anchor="middle" x="144" y="-78.8" font-family="Arial" font-size="9.00">to_review</text>
</g>
<!-- place_0e7766b460fd2a39a2fd81d4a3a636b033b52be4&#45;&gt;transition_b6589fc6ab0dc82cf12099d1c2d40ab994e8410c -->
<g id="edge1" class="edge">
<title>place_0e7766b460fd2a39a2fd81d4a3a636b033b52be4&#45;&gt;transition_b6589fc6ab0dc82cf12099d1c2d40ab994e8410c</title>
<path fill="none" stroke="#333333" d="M72,-81C81.76,-81 92.44,-81 102.49,-81"/>
<polygon fill="#333333" stroke="#333333" points="102.67,-82.75 107.67,-81 102.67,-79.25 102.67,-82.75"/>
</g>
<!-- place_b56f08775db75495b47fcebe192b46a1ddbf6416 -->
<g id="node2" class="node">
<title>place_b56f08775db75495b47fcebe192b46a1ddbf6416</title>
<ellipse fill="none" stroke="#333333" cx="252" cy="-81" rx="36" ry="36"/>
<text text-anchor="middle" x="252" y="-78.8" font-family="Arial" font-size="9.00">reviewed</text>
</g>
<!-- transition_356a192b7913b04c54574d18c28d46e6395428ab -->
<g id="node6" class="node">
<title>transition_356a192b7913b04c54574d18c28d46e6395428ab</title>
<polygon fill="none" stroke="#333333" points="396,-162 324,-162 324,-90 396,-90 396,-162"/>
<text text-anchor="middle" x="360" y="-123.8" font-family="Arial" font-size="9.00">publish</text>
</g>
<!-- place_b56f08775db75495b47fcebe192b46a1ddbf6416&#45;&gt;transition_356a192b7913b04c54574d18c28d46e6395428ab -->
<g id="edge3" class="edge">
<title>place_b56f08775db75495b47fcebe192b46a1ddbf6416&#45;&gt;transition_356a192b7913b04c54574d18c28d46e6395428ab</title>
<path fill="none" stroke="#333333" d="M285.38,-94.75C296.03,-99.27 308.01,-104.35 319.15,-109.08"/>
<polygon fill="#333333" stroke="#333333" points="318.58,-110.74 323.87,-111.09 319.95,-107.52 318.58,-110.74"/>
</g>
<!-- transition_da4b9237bacccdf19c0760cab7aec4a8359010b0 -->
<g id="node7" class="node">
<title>transition_da4b9237bacccdf19c0760cab7aec4a8359010b0</title>
<polygon fill="none" stroke="#333333" points="396,-72 324,-72 324,0 396,0 396,-72"/>
<text text-anchor="middle" x="360" y="-33.8" font-family="Arial" font-size="9.00">reject</text>
</g>
<!-- place_b56f08775db75495b47fcebe192b46a1ddbf6416&#45;&gt;transition_da4b9237bacccdf19c0760cab7aec4a8359010b0 -->
<g id="edge5" class="edge">
<title>place_b56f08775db75495b47fcebe192b46a1ddbf6416&#45;&gt;transition_da4b9237bacccdf19c0760cab7aec4a8359010b0</title>
<path fill="none" stroke="#333333" d="M285.38,-67.25C296.03,-62.73 308.01,-57.65 319.15,-52.92"/>
<polygon fill="#333333" stroke="#333333" points="319.95,-54.48 323.87,-50.91 318.58,-51.26 319.95,-54.48"/>
</g>
<!-- place_1f087a5954f6249bb7245576c304a0520d4178c5 -->
<g id="node3" class="node">
<title>place_1f087a5954f6249bb7245576c304a0520d4178c5</title>
<ellipse fill="none" stroke="#333333" cx="468" cy="-36" rx="36" ry="36"/>
<text text-anchor="middle" x="468" y="-33.8" font-family="Arial" font-size="9.00">rejected</text>
</g>
<!-- place_c2807535f28e44fe6c7375dcf90518115529a8fa -->
<g id="node4" class="node">
<title>place_c2807535f28e44fe6c7375dcf90518115529a8fa</title>
<ellipse fill="none" stroke="#333333" cx="468" cy="-126" rx="36" ry="36"/>
<text text-anchor="middle" x="468" y="-123.8" font-family="Arial" font-size="9.00">published</text>
</g>
<!-- transition_b6589fc6ab0dc82cf12099d1c2d40ab994e8410c&#45;&gt;place_b56f08775db75495b47fcebe192b46a1ddbf6416 -->
<g id="edge2" class="edge">
<title>transition_b6589fc6ab0dc82cf12099d1c2d40ab994e8410c&#45;&gt;place_b56f08775db75495b47fcebe192b46a1ddbf6416</title>
<path fill="none" stroke="#333333" d="M180,-81C189.76,-81 200.44,-81 210.49,-81"/>
<polygon fill="#333333" stroke="#333333" points="210.67,-82.75 215.67,-81 210.67,-79.25 210.67,-82.75"/>
</g>
<!-- transition_356a192b7913b04c54574d18c28d46e6395428ab&#45;&gt;place_c2807535f28e44fe6c7375dcf90518115529a8fa -->
<g id="edge4" class="edge">
<title>transition_356a192b7913b04c54574d18c28d46e6395428ab&#45;&gt;place_c2807535f28e44fe6c7375dcf90518115529a8fa</title>
<path fill="none" stroke="#333333" d="M396,-126C405.76,-126 416.44,-126 426.49,-126"/>
<polygon fill="#333333" stroke="#333333" points="426.67,-127.75 431.67,-126 426.67,-124.25 426.67,-127.75"/>
</g>
<!-- transition_da4b9237bacccdf19c0760cab7aec4a8359010b0&#45;&gt;place_1f087a5954f6249bb7245576c304a0520d4178c5 -->
<g id="edge6" class="edge">
<title>transition_da4b9237bacccdf19c0760cab7aec4a8359010b0&#45;&gt;place_1f087a5954f6249bb7245576c304a0520d4178c5</title>
<path fill="none" stroke="#333333" d="M396,-36C405.76,-36 416.44,-36 426.49,-36"/>
<polygon fill="#333333" stroke="#333333" points="426.67,-37.75 431.67,-36 426.67,-34.25 426.67,-37.75"/>
</g>
</g>
</svg>
